<?xml version="1.0" standalone="no"?>
<!DOCTYPE svg PUBLIC "-//W3C//DTD SVG 20010904//EN"
 "http://www.w3.org/TR/2001/REC-SVG-20010904/DTD/svg10.dtd">
<svg version="1.0" xmlns="http://www.w3.org/2000/svg"
 width="512.000000pt" height="512.000000pt" viewBox="0 0 512.000000 512.000000"
 preserveAspectRatio="xMidYMid meet">
<metadata>
Created by potrace 1.16, written by Peter Selinger 2001-2019
</metadata>
<g transform="translate(0.000000,512.000000) scale(0.100000,-0.100000)"
fill="#000000" stroke="none">
<path d="M716 5101 c-15 -10 -37 -32 -47 -47 -26 -39 -26 -126 0 -168 32 -52
66 -64 202 -75 139 -12 239 -36 345 -85 265 -123 466 -375 549 -687 34 -131
45 -236 45 -431 l0 -168 -189 0 -188 0 -5 51 c-8 79 -61 136 -136 146 -57 8
-121 -25 -150 -76 -21 -37 -22 -51 -22 -270 0 -272 5 -292 85 -331 104 -50
211 13 223 129 l5 51 188 0 188 0 4 -1002 c3 -978 4 -1005 24 -1088 68 -275
180 -479 367 -665 196 -195 442 -323 712 -370 111 -19 332 -19 450 0 175 28
360 102 519 206 103 68 295 260 363 364 105 159 177 339 207 520 14 89 16 203
13 1015 l-3 915 -23 74 c-106 344 -357 589 -701 683 -113 31 -351 31 -476 0
-101 -25 -265 -102 -339 -159 -96 -75 -86 -80 -86 47 0 545 288 973 741 1100
41 11 130 25 198 31 136 11 142 13 186 59 27 29 30 37 30 101 0 70 0 71 -42
110 l-42 39 -1583 0 c-1534 0 -1584 -1 -1612 -19z m2213 -358 c-213 -220 -341
-494 -385 -823 -20 -153 -20 -2268 1 -2382 113 -635 792 -988 1372 -713 51 24
107 53 123 65 38 27 37 21 -2 -49 -274 -489 -867 -673 -1357 -421 -265 136
-449 365 -529 659 l-27 96 -5 1365 -5 1365 -23 108 c-62 295 -179 527 -364
722 l-80 85 678 0 677 0 -74 -77z m783 -1270 c230 -79 395 -270 443 -510 l7
-33 -234 0 c-202 0 -238 -2 -267 -18 -50 -25 -74 -63 -78 -124 -5 -67 19 -114
73 -145 37 -22 49 -23 277 -23 l237 0 0 -95 0 -95 -237 0 c-207 0 -242 -2
-272 -18 -50 -25 -74 -63 -78 -124 -5 -67 19 -114 73 -145 37 -22 49 -23 277
-23 l237 0 0 -95 0 -95 -237 0 c-207 0 -242 -2 -272 -18 -50 -25 -74 -63 -78
-124 -5 -67 19 -114 73 -145 37 -22 49 -23 272 -23 l234 0 -7 -33 c-32 -144
-90 -252 -191 -352 -155 -155 -374 -223 -584 -181 -138 28 -239 83 -341 185
-70 70 -94 102 -128 172 -71 147 -71 145 -71 864 0 718 1 722 69 860 70 140
166 236 306 306 107 53 186 70 310 65 79 -3 120 -10 187 -33z"/>
</g>
</svg>
