<?xml version="1.0" standalone="no"?>
<!DOCTYPE svg PUBLIC "-//W3C//DTD SVG 20010904//EN"
 "http://www.w3.org/TR/2001/REC-SVG-20010904/DTD/svg10.dtd">
<svg version="1.0" xmlns="http://www.w3.org/2000/svg"
 width="64.000000pt" height="64.000000pt" viewBox="0 0 64.000000 64.000000"
 preserveAspectRatio="xMidYMid meet">
<metadata>
Created by potrace 1.16, written by Peter Selinger 2001-2019
</metadata>
<g transform="translate(0.000000,64.000000) scale(0.100000,-0.100000)"
fill="#000000" stroke="none">
<path d="M85 630 c-10 -17 4 -30 33 -30 62 -1 112 -58 112 -127 0 -39 -2 -43
-24 -43 -13 0 -26 5 -28 12 -2 6 -12 9 -21 5 -12 -4 -17 -18 -17 -47 0 -33 3
-40 19 -40 11 0 23 5 26 10 3 6 14 10 25 10 16 0 18 -12 22 -132 2 -112 6
-139 24 -168 62 -106 202 -109 278 -7 18 24 22 46 25 149 4 140 -6 186 -50
222 -33 28 -93 35 -131 15 -28 -15 -31 -7 -18 42 16 58 58 99 104 99 29 0 36
4 36 20 0 19 -7 20 -204 20 -126 0 -207 -4 -211 -10z m405 -237 l22 -28 -33
-3 c-19 -2 -38 -7 -43 -12 -15 -15 14 -40 48 -41 28 -2 27 -2 -9 -8 -31 -5
-40 -10 -40 -26 0 -16 9 -21 40 -26 36 -6 37 -6 9 -8 -34 -1 -63 -26 -48 -41
5 -5 24 -10 43 -12 l33 -3 -22 -27 c-40 -51 -119 -30 -136 37 -3 14 -4 61 -2
106 3 70 6 83 27 100 35 29 85 25 111 -8z"/>
</g>
</svg>
