<?xml version="1.0" standalone="no"?>
<!DOCTYPE svg PUBLIC "-//W3C//DTD SVG 20010904//EN"
 "http://www.w3.org/TR/2001/REC-SVG-20010904/DTD/svg10.dtd">
<svg version="1.0" xmlns="http://www.w3.org/2000/svg"
 width="512.000000pt" height="512.000000pt" viewBox="0 0 512.000000 512.000000"
 preserveAspectRatio="xMidYMid meet">
<metadata>
Created by potrace 1.16, written by Peter Selinger 2001-2019
</metadata>
<g transform="translate(0.000000,512.000000) scale(0.100000,-0.100000)"
fill="#000000" stroke="none">
<path d="M4100 3614 c-84 -37 -111 -86 -120 -221 -6 -87 -12 -113 -39 -167
-58 -118 -212 -232 -366 -271 -46 -12 -122 -15 -337 -15 l-278 0 0 59 0 58 50
7 c34 5 54 13 65 29 21 30 19 73 -5 97 -18 18 -33 20 -190 20 -157 0 -172 -2
-190 -20 -22 -22 -26 -60 -10 -90 11 -21 60 -40 101 -40 29 0 29 -1 29 -60 l0
-60 -150 0 -150 0 0 60 0 60 30 0 c44 0 97 25 105 49 10 31 -4 80 -25 91 -10
6 -93 10 -184 10 -153 0 -168 -2 -186 -20 -24 -24 -26 -67 -5 -97 11 -16 31
-24 65 -29 l50 -7 0 -58 0 -59 -145 0 -145 0 0 60 c0 59 0 60 29 60 72 0 123
47 106 99 -15 48 -26 51 -210 51 -168 0 -174 -1 -189 -22 -40 -56 -9 -114 64
-124 l50 -7 0 -58 0 -59 -492 0 c-320 0 -507 -4 -532 -11 -21 -6 -58 -29 -82
-51 -111 -102 -86 -280 48 -349 33 -17 60 -19 223 -19 102 0 185 -1 185 -2 0
-2 -8 -25 -19 -53 -48 -130 -53 -315 -11 -450 40 -127 86 -202 184 -300 98
-97 173 -144 301 -186 70 -24 73 -24 665 -27 420 -2 617 0 670 8 393 62 663
435 600 828 -6 35 -17 81 -24 103 -8 21 -10 39 -5 39 20 0 136 -64 177 -97
124 -101 162 -173 172 -323 7 -115 20 -152 69 -193 43 -36 95 -51 153 -44 66
8 112 39 146 95 l27 47 0 766 0 766 -30 48 c-52 84 -156 118 -245 79z m114
-156 c14 -20 16 -107 16 -740 0 -705 0 -718 -20 -738 -24 -24 -38 -25 -62 -3
-17 15 -18 52 -18 744 0 648 2 729 16 743 22 22 50 20 68 -6z m-234 -739 l0
-291 -49 44 c-67 60 -161 114 -256 145 -79 27 -83 27 -397 31 l-318 3 0 69 0
68 313 4 c293 4 316 5 382 27 96 31 191 83 261 141 33 27 60 49 62 49 1 1 2
-130 2 -290z m-2562 0 l-69 -70 -206 3 -205 3 -24 28 c-28 33 -25 61 8 90 18
15 48 17 293 17 l272 0 -69 -71z m502 2 l0 -69 -43 -6 c-113 -17 -247 -118
-302 -226 -135 -267 18 -585 309 -639 77 -14 1032 -15 1107 -1 140 26 262 120
323 250 61 130 43 326 -39 434 l-35 46 99 0 98 0 27 -60 c120 -266 31 -560
-219 -722 -32 -21 -91 -49 -130 -61 -69 -22 -78 -22 -675 -22 -597 0 -606 0
-675 22 -268 84 -443 367 -396 639 40 227 226 420 451 468 105 23 100 26 100
-53z m440 -1 l0 -70 -145 0 -145 0 0 70 0 70 145 0 145 0 0 -70z m450 0 l0
-70 -150 0 -150 0 0 70 0 70 150 0 150 0 0 -70z m-448 -331 c3 -113 5 -122 27
-140 30 -25 76 -24 101 1 18 18 20 33 20 140 l0 120 150 0 150 0 0 -124 c0
-118 1 -126 22 -140 30 -21 71 -20 99 3 22 18 24 28 27 135 4 114 5 116 26
110 92 -27 172 -100 200 -181 22 -64 20 -158 -3 -210 -28 -61 -94 -127 -154
-154 l-52 -24 -540 0 c-610 0 -574 -4 -665 81 -153 143 -110 387 83 475 68 30
67 31 67 -91 0 -104 1 -112 25 -135 30 -31 77 -33 105 -5 18 18 20 33 20 140
l0 120 144 0 144 0 4 -121z"/>
</g>
</svg>
